# AST/ASF file generated using VICON BodyLanguage
# -----------------------------------------------
:version 1.10
:name VICON
:units
  mass 1.0
  length 0.45
  angle deg
:documentation
   .ast/.asf automatically generated from VICON data using
   VICON BodyBuilder and BodyLanguage model FoxedUp or BRILLIANT.MOD
:root
   order TX TY TZ RX RY RZ
   axis XYZ
   position 0 0 0  
   orientation 0 0 0 
:bonedata
  begin
     id 1 
     name lhipjoint
     direction 0.57768 -0.667037 0.470475 
     length 2.36008 
     axis 0 0 0  XYZ
  end
  begin
     id 2 
     name lfemur
     direction 0.34202 -0.939693 0  
     length 6.97235  
     axis 0 0 20  XYZ
    dof rx ry rz
    limits (-160.0 20.0)
           (-70.0 70.0)
           (-60.0 70.0)
  end
  begin
     id 3 
     name ltibia
     direction 0.34202 -0.939693 0   
     length 6.93428   
     axis 0 0 20   XYZ
    dof rx
    limits (-10.0 170.0)
  end
  begin
     id 4 
     name lfoot
     direction 0.133018 -0.365463 0.921272   
     length 2.18603   
     axis -90 7.62852e-016 20   XYZ
    dof rx rz
    limits (-45.0 90.0)
           (-70.0 20.0)
  end
  begin
     id 5 
     name ltoes
     direction 1.53519e-011 -4.22055e-011 1   
     length 1.07924   
     axis -90 7.62852e-016 20   XYZ
    dof rx
    limits (-90.0 20.0)
  end
  begin
     id 6 
     name rhipjoint
     direction -0.577712 -0.667019 0.470462   
     length 2.36015  
     axis 0 0 0  XYZ 
  end
  begin
     id 7 
     name rfemur
     direction -0.34202 -0.939693 0   
     length 6.71195   
     axis 0 0 -20   XYZ
    dof rx ry rz
    limits (-160.0 20.0)
           (-70.0 70.0)
           (-70.0 60.0)
  end
  begin
     id 8 
     name rtibia
     direction -0.34202 -0.939693 0   
     length 7.04592   
     axis 0 0 -20   XYZ
    dof rx
    limits (-10.0 170.0)
 end
 begin
     id 9 
     name rfoot
     direction -0.113796 -0.312651 0.943027   
     length 2.03846  
     axis -90 -7.62852e-016 -20   XYZ
    dof rx rz
    limits (-45.0 90.0)
           (-20.0 70.0)
  end
  begin
     id 10 
     name rtoes
     direction -1.53586e-011 -4.218e-011 1   
     length 1.01562   
     axis -90 -7.62852e-016 -20   XYZ
    dof rx
    limits (-90.0 20.0)
  end
  begin
     id 11 
     name lowerback
     direction -0.0417299 0.991937 -0.119667   
     length 2.05257   
     axis 0 0 0   XYZ
    dof rx ry rz
    limits (-20.0 45.0)
           (-30.0 30.0)
           (-30.0 30.0)
  end
  begin
     id 12 
     name upperback
     direction -0.00017666 0.999999 0.00105178   
     length 2.05693   
     axis 0 0 0   XYZ
    dof rx ry rz
    limits (-20.0 45.0)
           (-30.0 30.0)
           (-30.0 30.0)
  end
  begin
     id 13 
     name thorax
     direction 0.0185169 0.998203 0.0569866   
     length 2.0932   
     axis 0 0 0   XYZ
    dof rx ry rz
    limits (-20.0 45.0)
           (-30.0 30.0)
           (-30.0 30.0)
  end
  begin
     id 14 
     name lowerneck
     direction -0.0212406 0.982645 0.184277   
     length 1.72509   
     axis 0 0 0   XYZ
    dof rx ry rz
    limits (-20.0 45.0)
           (-30.0 30.0)
           (-30.0 30.0)
  end
  begin
     id 15 
     name upperneck
     direction 0.00528579 0.965323 -0.261004   
     length 1.76294   
     axis 0 0 0   XYZ
    dof rx ry rz
    limits (-20.0 45.0)
           (-30.0 30.0)
           (-30.0 30.0)
  end
  begin
     id 16
     name head
     direction 0.00695421 0.994078 -0.108445  
     length 1.78678  
     axis 0 0 0   XYZ
    dof rx ry rz
    limits (-20.0 45.0)
           (-30.0 30.0)
           (-30.0 30.0)
  end
  begin
     id 17 
     name lclavicle
     direction 0.97277 0.211305 -0.095232  
     length 3.84823  
     axis 0 0 0   XYZ
    dof ry rz
    limits (-20.0 10.0)
           (0.0 20.0)
  end
  begin
     id 18 
     name lhumerus
     direction 1 -4.48957e-011 -1.98313e-027   
     length 4.97185   
     axis 180 -30 -90   XYZ
    dof rx ry rz
    limits (-60.0 90.0)
           (-90.0 90.0)
           (-90.0 90.0)
  end
  begin
     id 19
     name lradius
     direction 1 -4.4898e-011 7.31063e-027   
     length 3.35811   
     axis 180 -30 -90   XYZ
    dof rx
    limits (-10.0 170.0)
  end
  begin
     id 20
     name lwrist
     direction 1 -4.48938e-011 9.95048e-027   
     length 1.67905   
     axis -8.75986e-015 90 90   XYZ
    dof ry
    limits (-180.0 0.0)
 end
  begin
     id 21 
     name lhand
     direction 1 -4.4901e-011 1.9901e-026   
     length 0.622776   
     axis -1.26985e-014 90 90   XYZ
    dof rx rz
    limits (-90.0 90.0)
           (-45.0 45.0)
  end
  begin
     id 22 
     name lfingers
     direction 1 -4.48961e-011 3.98019e-026   
     length 0.502098   
     axis -2.5397e-014 90 90   XYZ
    dof rx
    limits (0.0 90.0)
  end
  begin
     id 23
     name lthumb
     direction 0.707107 -6.34933e-011 0.707107   
     length 0.720915   
     axis -90 45 2.85299e-015   XYZ
    dof rx rz
    limits (-45.0 45.0)
           (-45.0 45.0)
  end
  begin
     id 24 
     name rclavicle
     direction -0.990867 0.133739 -0.0172226   
     length 3.78845  
     axis 0 0 0   XYZ 
    dof ry rz
    limits (-10.0 20.0)
           (-20.0 0.0)
  end
  begin
     id 25 
     name rhumerus
     direction -1 -4.48972e-011 -1.99267e-027  
     length 4.96493   
     axis 180 30 90   XYZ
    dof rx ry rz
    limits (-90.0 60.0)
           (-90.0 90.0)
           (-90.0 90.0)
  end
  begin
     id 26 
     name rradius
     direction -1 -4.48969e-011 8.96093e-027   
     length 3.34929   
     axis 180 30 90   XYZ
    dof rx
    limits (-10.0 170.0)
  end
  begin
     id 27 
     name rwrist
     direction -1 -4.48953e-011 9.95048e-027   
     length 1.67464   
     axis -8.75986e-015 -90 -90   XYZ
    dof ry
    limits (-180.0 0.0)
  end
  begin
     id 28
     name rhand
     direction -1 -4.49001e-011 1.9901e-026   
     length 0.638041   
     axis -1.26985e-014 -90 -90   XYZ
    dof rx rz
    limits (-90.0 90.0)
           (-45.0 45.0)
  end
  begin
     id 29
     name rfingers
     direction -1 -4.48967e-011 3.98019e-026   
     length 0.514405   
     axis -2.5397e-014 -90 -90   XYZ
    dof rx
    limits (0.0 90.0)
  end
  begin
     id 30
     name rthumb
     direction -0.707107 -6.34904e-011 0.707107   
     length 0.738586   
     axis -90 -45 -2.85299e-015   XYZ
    dof rx rz
    limits (-45.0 45.0)
           (-45.0 45.0)
  end
:hierarchy
  begin
    root lhipjoint rhipjoint lowerback
    lhipjoint lfemur
    lfemur ltibia
    ltibia lfoot
    lfoot ltoes
    rhipjoint rfemur
    rfemur rtibia
    rtibia rfoot
    rfoot rtoes
    lowerback upperback
    upperback thorax
    thorax lowerneck lclavicle rclavicle
    lowerneck upperneck
    upperneck head
    lclavicle lhumerus
    lhumerus lradius
    lradius lwrist
    lwrist lhand lthumb
    lhand lfingers
    rclavicle rhumerus
    rhumerus rradius
    rradius rwrist
    rwrist rhand rthumb
    rhand rfingers
  end

#!OML:ASF E:\Mandelcareful walks\Project 1\Capture day 1\Session 1\Subject1.ASF
:FULLY-SPECIFIED
:DEGREES
356
root -11.4145 14.7206 -0.282696 -348.191 146.593 -356.815
lowerback 49.1072 1.32077 -4.14813
upperback 8.03605 2.52224 0.204488
thorax -11.5139 2.35789 0.802524
lowerneck -29.2379 -5.43776 -8.74807
upperneck 23.8635 -6.98496 10.8419
head 13.6899 -2.25407 4.40124
rclavicle 9.14409e-015 3.43897e-014
rhumerus -6.12557 -1.66073 -72.034
rradius 54.288
rwrist -23.4038
rhand -17.0128 -28.4837
rfingers 7.12502
rthumb 9.22301 -58.262
lclavicle 9.14409e-015 3.43897e-014
lhumerus -4.11124 -17.2532 71.7057
lradius 57.4747
lwrist 23.6256
lhand -30.3497 -18.8928
lfingers 7.12502
lthumb -3.65521 11.0556
rfemur -50.5069 -19.0333 14.7564
rtibia 77.6425
rfoot -17.6158 -4.20188
rtoes 8.54349
lfemur -52.3399 12.1309 -20.5221
ltibia 72.5617
lfoot -27.9616 -0.0238401
ltoes -2.74268
357
root -11.406 14.731 -0.401242 -348.328 145.943 -356.572
lowerback 49.6111 1.64054 -4.64025
upperback 8.01456 2.6969 0.512199
thorax -11.6367 2.44045 1.27465
lowerneck -29.0684 -5.84207 -9.39604
upperneck 23.4948 -7.59775 11.9527
head 13.6768 -2.43051 4.82939
rclavicle 3.83654e-014 -4.81059e-014
rhumerus -6.14476 -1.44913 -71.6618
rradius 54.098
rwrist -23.248
rhand -17.1965 -27.7752
rfingers 7.12502
rthumb 9.04576 -57.5613
lclavicle 3.83654e-014 -4.81059e-014
lhumerus -4.58973 -16.7172 71.8016
lradius 57.365
lwrist 23.599
lhand -30.5238 -18.8694
lfingers 7.12502
lthumb -3.82333 11.076
rfemur -52.2394 -19.2654 16.9104
rtibia 76.1559
rfoot -17.3361 -3.19366
rtoes 7.21075
lfemur -51.4385 12.754 -20.506
ltibia 72.4852
lfoot -28.4923 0.143292
ltoes -2.95829
358
root -11.396 14.7467 -0.523385 -348.545 145.246 -356.342
lowerback 50.085 1.95734 -5.05077
upperback 8.02619 2.90986 0.790722
thorax -11.7178 2.54099 1.65975
lowerneck -29.0344 -6.1827 -9.67732
upperneck 23.3581 -8.13726 12.5589
head 13.7412 -2.60643 5.01085
rclavicle -1.82882e-014 4.69132e-014
rhumerus -6.13018 -0.718494 -70.8168
rradius 53.9262
rwrist -23.7513
rhand -16.5637 -28.1094
rfingers 7.12502
rthumb 9.65635 -57.8681
lclavicle -1.82882e-014 4.69132e-014
lhumerus -4.99252 -16.445 71.8436
lradius 57.2026
lwrist 23.7108
lhand -30.728 -18.7494
lfingers 7.12502
lthumb -4.02047 11.1924
rfemur -53.7062 -19.7833 19.1744
rtibia 74.5787
rfoot -17.0613 -1.80914
rtoes 4.97709
lfemur -50.4626 13.387 -20.4521
ltibia 72.5642
lfoot -29.2094 0.322877
ltoes -3.32298
359
root -11.3871 14.7692 -0.653903 -349.463 144.549 -356.255
lowerback 51.4507 2.2308 -5.30532
upperback 7.94803 3.14618 0.947117
thorax -12.0133 2.67913 1.79229
lowerneck -29.0192 -6.51549 -9.67953
upperneck 23.299 -8.72493 12.9347
head 13.8256 -2.80678 5.04063
rclavicle 7.95139e-015 -8.34896e-015
rhumerus -6.35207 -1.21236 -71.1294
rradius 53.6806
rwrist -22.9399
rhand -15.7654 -27.7702
rfingers 7.12502
rthumb 10.4265 -57.4917
lclavicle 7.95139e-015 -8.34896e-015
lhumerus -5.32717 -16.4627 71.858
lradius 57.0635
lwrist 23.8561
lhand -30.5962 -18.5697
lfingers 7.12502
lthumb -3.89318 11.3745
rfemur -54.0557 -20.5164 21.2226
rtibia 72.7425
rfoot -17.2999 -0.816484
rtoes -6.78736
lfemur -48.5748 13.9647 -20.4275
ltibia 72.4689
lfoot -29.8975 0.738408
ltoes -4.01767
360
root -11.3622 14.7038 -0.779838 -349.771 143.423 -356.372
lowerback 51.5987 2.79704 -6.00683
upperback 7.99125 3.46962 1.14301
thorax -12.0112 2.82369 2.1777
lowerneck -28.7409 -6.53394 -8.6732
upperneck 22.7201 -8.94767 12.1886
head 13.4567 -2.93901 4.48464
rclavicle 1.76918e-014 1.03368e-014
rhumerus -6.3232 -1.84105 -71.0433
rradius 53.5871
rwrist -23.5057
rhand -15.8018 -28.2592
rfingers 7.12502
rthumb 10.3914 -57.9824
lclavicle 1.76918e-014 1.03368e-014
lhumerus -5.76314 -16.3113 72.0541
lradius 56.9243
lwrist 23.8028
lhand -30.5289 -18.3001
lfingers 7.12502
lthumb -3.82821 11.6452
rfemur -55.5972 -20.2928 23.273
rtibia 71.2114
rfoot -17.7297 -1.09979
rtoes -0.434106
lfemur -47.921 14.9423 -20.7795
ltibia 72.803
lfoot -30.4109 1.31288
ltoes -4.88363
361
root -11.3484 14.7309 -0.89942 -350.268 142.26 -356.501
lowerback 52.0085 3.3867 -6.66434
upperback 7.97085 3.83244 1.36257
thorax -12.1225 2.98792 2.53619
lowerneck -28.5742 -6.70076 -8.80351
upperneck 22.5406 -9.21067 12.4806
head 13.414 -3.03341 4.56412
rclavicle 1.39149e-014 -8.44835e-015
rhumerus -6.43408 -2.22966 -70.9174
rradius 53.5182
rwrist -23.4143
rhand -15.758 -28.8729
rfingers 7.12502
rthumb 10.4336 -58.594
lclavicle 1.39149e-014 -8.44835e-015
lhumerus -6.13909 -16.2296 72.3425
lradius 56.6585
lwrist 23.7174
lhand -30.5419 -18.1637
lfingers 7.12502
lthumb -3.84077 11.7814
rfemur -56.5494 -19.8933 24.764
rtibia 69.1587
rfoot -17.5208 -0.482522
rtoes 0.780332
lfemur -46.6413 15.8504 -21.0137
ltibia 72.7097
lfoot -30.9325 1.57048
ltoes -4.35739
362
root -11.3252 14.7224 -1.02066 -350.479 141.162 -356.471
lowerback 52.0066 3.87726 -7.12703
upperback 7.99231 4.18076 1.58434
thorax -12.141 3.13115 2.82988
lowerneck -28.383 -6.88419 -9.20186
upperneck 22.5043 -9.44771 12.9528
head 13.4516 -3.11314 4.77487
rclavicle -1.0138e-014 -4.27387e-014
rhumerus -6.6614 -2.25139 -70.6998
rradius 53.3928
rwrist -23.4002
rhand -16.0528 -29.081
rfingers 7.12502
rthumb 10.1492 -58.8162
lclavicle -1.0138e-014 -4.27387e-014
lhumerus -6.58762 -16.2236 72.5738
lradius 56.4674
lwrist 23.7444
lhand -30.5091 -18.2607
lfingers 7.12502
lthumb -3.80908 11.685
rfemur -57.6899 -19.645 26.5679
rtibia 67.2184
rfoot -16.6591 -0.150675
rtoes 2.5071
lfemur -45.7655 16.699 -21.0804
ltibia 72.8491
lfoot -31.5976 1.74531
ltoes -4.3132
363
root -11.3016 14.7201 -1.14316 -350.659 140.15 -356.434
lowerback 51.9342 4.22935 -7.49535
upperback 8.04734 4.42227 1.79839
thorax -12.1078 3.22641 3.12589
lowerneck -28.3986 -6.98823 -9.38288
upperneck 22.6159 -9.58572 13.1495
head 13.5454 -3.1583 4.86237
rclavicle 6.7885e-014 -2.52953e-014
rhumerus -6.74784 -1.87514 -70.3817
rradius 53.1357
rwrist -23.5104
rhand -16.6106 -28.6802
rfingers 7.12502
rthumb 9.61108 -58.441
lclavicle 6.7885e-014 -2.52953e-014
lhumerus -7.12729 -16.1189 72.7454
lradius 56.3613
lwrist 23.656
lhand -30.4276 -18.4275
lfingers 7.12502
lthumb -3.73042 11.5196
rfemur -58.6126 -19.728 28.4305
rtibia 65.0693
rfoot -15.2698 -0.0876732
rtoes 4.41163
lfemur -44.8395 17.3497 -21.1434
ltibia 72.7953
lfoot -32.1282 1.99986
ltoes -4.06986
364
root -11.2715 14.7284 -1.26502 -351.149 138.93 -356.395
lowerback 52.2851 4.7281 -7.95723
upperback 8.06509 4.77343 1.9808
thorax -12.1745 3.3818 3.3569
lowerneck -28.5773 -7.08714 -9.52752
upperneck 22.8869 -9.74349 13.3754
head 13.7422 -3.19333 4.95927
rclavicle 2.60905e-014 -5.561e-014
rhumerus -6.76467 -1.66548 -70.0593
rradius 52.9274
rwrist -23.5667
rhand -16.8027 -28.4553
rfingers 7.12502
rthumb 9.42568 -58.2246
lclavicle 2.60905e-014 -5.561e-014
lhumerus -7.53548 -16.0798 72.8764
lradius 56.2056
lwrist 23.565
lhand -30.3643 -18.4476
lfingers 7.12502
lthumb -3.6693 11.5005
rfemur -58.8671 -19.6817 30.0351
rtibia 62.9561
rfoot -13.9606 -0.488451
rtoes 3.23481
lfemur -43.414 18.2403 -21.0235
ltibia 72.6835
lfoot -32.3783 1.33866
ltoes -0.0924671
